HIERARCHY
ROOT Hips
{
	OFFSET 0.00 0.00 0.00
	CHANNELS 6 Xposition Yposition Zposition Yrotation Xrotation Zrotation
	JOINT LHipJoint
	{
		OFFSET	0.0000	0.0000	0.0000
		CHANNELS 3 Yrotation Xrotation Zrotation
		JOINT LeftUpLeg
		{
			OFFSET	1.0138	-0.0809	-0.0827
			CHANNELS 3 Yrotation Xrotation Zrotation
			JOINT LeftLeg
			{
				OFFSET	0.4110	-3.9095	0.3245
				CHANNELS 3 Yrotation Xrotation Zrotation
				JOINT LeftFoot
				{
					OFFSET	0.3810	-4.0555	-0.1470
					CHANNELS 3 Yrotation Xrotation Zrotation
					JOINT LeftToeBase
					{
						OFFSET	0.1396	-0.4462	1.3079
						CHANNELS 3 Yrotation Xrotation Zrotation
						End Site
						{
							OFFSET 0.0161 -0.0248 0.1809
						}
					}
				}
			}
		}
	}
	JOINT LowerBack
	{
		OFFSET	0.0000	0.7977	-0.3873
		CHANNELS 3 Yrotation Xrotation Zrotation
		JOINT Spine
		{
			OFFSET	0.0000	1.4131	0.1715
			CHANNELS 3 Yrotation Xrotation Zrotation
			JOINT Spine1
			{
				OFFSET	0.0000	1.4392	-0.1032
				CHANNELS 3 Yrotation Xrotation Zrotation
				JOINT LeftShoulder
				{
					OFFSET	0.2274	1.0382	0.4032
					CHANNELS 3 Yrotation Xrotation Zrotation
					JOINT LeftArm
					{
						OFFSET	1.4730	-0.2267	-0.0231
						CHANNELS 3 Yrotation Xrotation Zrotation
						JOINT LeftForeArm
						{
							OFFSET	1.6131	-1.8059	0.0081
							CHANNELS 3 Yrotation Xrotation Zrotation
							JOINT LeftHand
							{
								OFFSET	1.2197	-1.2423	1.6317
								CHANNELS 3 Yrotation Xrotation Zrotation
								JOINT LThumb
								{
									OFFSET	0.0109	-0.0753	0.4387
									CHANNELS 3 Yrotation Xrotation Zrotation
									End Site
									{
										OFFSET -0.2090 -0.0868 0.2097
									}
								}
								JOINT LeftFingerBase
								{
									OFFSET	0.1071	-0.1567	0.2607
									CHANNELS 3 Yrotation Xrotation Zrotation
									JOINT LeftHandFinger1
									{
										OFFSET	0.1706	-0.2492	0.6830
										CHANNELS 3 Yrotation Xrotation Zrotation
										End Site
										{
											OFFSET 0.0335 -0.1507 0.2071
										}
									}
								}
							}
						}
					}
				}
				JOINT Neck
				{
					OFFSET	0.0000	1.7498	0.2381
					CHANNELS 3 Yrotation Xrotation Zrotation
					JOINT Neck1
					{
						OFFSET	0.0000	0.5043	0.1959
						CHANNELS 3 Yrotation Xrotation Zrotation
						JOINT Head
						{
							OFFSET	0.0000	0.5044	0.1959
							CHANNELS 3 Yrotation Xrotation Zrotation
							End Site
							{
								OFFSET 0.0000 1.4798 -0.0693
							}
						}
					}
				}
				JOINT RightShoulder
				{
					OFFSET	-0.2274	1.0382	0.4032
					CHANNELS 3 Yrotation Xrotation Zrotation
					JOINT RightArm
					{
						OFFSET	-1.4730	-0.2267	-0.0231
						CHANNELS 3 Yrotation Xrotation Zrotation
						JOINT RightForeArm
						{
							OFFSET	-1.6131	-1.8059	0.0081
							CHANNELS 3 Yrotation Xrotation Zrotation
							JOINT RightHand
							{
								OFFSET	-1.2197	-1.2423	1.6317
								CHANNELS 3 Yrotation Xrotation Zrotation
								JOINT RThumb
								{
									OFFSET	-0.0109	-0.0753	0.4387
									CHANNELS 3 Yrotation Xrotation Zrotation
									End Site
									{
										OFFSET 0.2090 -0.0868 0.2097
									}
								}
								JOINT RightFingerBase
								{
									OFFSET	-0.1071	-0.1567	0.2607
									CHANNELS 3 Yrotation Xrotation Zrotation
									JOINT RightHandFinger1
									{
										OFFSET	-0.1706	-0.2492	0.6830
										CHANNELS 3 Yrotation Xrotation Zrotation
										End Site
										{
											OFFSET -0.0335 -0.1507 0.2071
										}
									}
								}
							}
						}
					}
				}
			}
		}
	}
	JOINT RHipJoint
	{
		OFFSET	0.0000	0.0000	0.0000
		CHANNELS 3 Yrotation Xrotation Zrotation
		JOINT RightUpLeg
		{
			OFFSET	-1.0138	-0.0809	-0.0827
			CHANNELS 3 Yrotation Xrotation Zrotation
			JOINT RightLeg
			{
				OFFSET	-0.4110	-3.9095	0.3245
				CHANNELS 3 Yrotation Xrotation Zrotation
				JOINT RightFoot
				{
					OFFSET	-0.3810	-4.0555	-0.1470
					CHANNELS 3 Yrotation Xrotation Zrotation
					JOINT RightToeBase
					{
						OFFSET	-0.1396	-0.4462	1.3079
						CHANNELS 3 Yrotation Xrotation Zrotation
						End Site
						{
							OFFSET -0.0161 -0.0248 0.1809
						}
					}
				}
			}
		}
	}
}
MOTION
Frames: 14
Frame Time: 0.0333333
0.0768 8.5292 0.0807 1.5786 -0.8929 -5.0712 0.0000 -0.0000 0.0000 12.3171 -16.1586 5.5280 12.3756 21.3492 6.6074 3.1760 -5.5866 -3.6936 0.0000 -0.4420 -0.0000 0.0000 -0.0000 0.0000 -0.0797 0.8621 4.9662 -0.0975 1.7278 9.5551 -13.7900 3.4793 3.5216 2.8087 4.7399 -44.6354 19.2580 21.3683 1.4995 19.5328 3.3685 -22.9489 15.5266 -8.4051 29.7874 4.3580 18.3322 -2.9518 -7.8437 -1.3376 -4.0519 -0.3047 1.0453 -2.1696 -0.4273 1.0323 -2.1649 0.9915 0.5156 -5.9783 3.3347 4.5005 -3.6861 0.4015 -1.1232 28.5263 -16.8309 19.0779 -0.7043 -14.9905 13.0964 10.1197 -15.5266 -8.4051 -29.7874 -4.3580 18.3322 2.9518 7.8438 -1.3376 4.0519 0.0000 -0.0000 0.0000 -3.9582 2.8823 15.9276 -6.3199 9.3975 2.2757 2.3234 -11.8352 -13.3851 0.0000 -0.5487 0.0000 
0.1914 8.5077 0.0325 -0.9938 -0.8929 -5.0305 0.0000 -0.0000 0.0000 12.7610 -16.7695 5.2514 13.3461 23.2511 6.5946 4.6041 -6.9770 -3.2949 0.0000 -0.2086 0.0000 0.0000 -0.0000 0.0000 -0.5326 0.8265 4.9901 -1.0045 1.6928 9.6763 -13.9672 3.4949 3.7173 2.8510 5.1202 -44.9277 19.3852 21.4856 1.5437 19.6760 3.6365 -22.8182 15.5444 -8.3545 29.8400 4.4092 18.2987 -2.9054 -7.8406 -1.3408 -4.0493 0.4966 0.7726 -2.0375 0.3823 0.7722 -2.0637 1.9470 0.5398 -6.3570 3.1878 4.5800 -3.3669 -0.1386 -0.9419 28.2413 -17.0569 19.2952 -0.7744 -13.9156 12.7009 10.2967 -15.2584 -8.8579 -29.5022 -3.8815 18.8136 3.3871 7.8185 -1.3635 4.0310 0.0000 -0.0000 0.0000 -3.9904 0.4777 14.7425 -6.1353 13.2398 2.3181 3.9691 -12.7716 -12.9722 0.0000 -0.4893 -0.0000 
0.3291 8.4878 -0.0038 -3.5656 -0.8930 -5.0089 0.0000 -0.0000 0.0000 13.5511 -17.3053 4.7417 13.7885 25.1170 6.4758 6.2299 -8.4940 -2.8262 -0.0000 -0.0517 0.0000 0.0000 -0.0000 0.0000 -0.9956 0.7959 5.0338 -1.9305 1.6701 9.8013 -14.1613 3.5101 3.9153 2.9015 5.5438 -45.2312 19.5353 21.6237 1.5962 19.8163 3.9746 -22.6710 15.5423 -8.2960 29.8964 4.4621 18.2672 -2.8577 -7.8378 -1.3437 -4.0470 1.2146 0.5106 -1.8885 1.1078 0.5184 -1.9437 2.8367 0.5276 -6.7139 3.0458 4.6566 -3.0702 -0.7672 -0.7552 27.9430 -17.1611 19.3952 -0.8070 -12.8882 12.1334 10.4033 -15.0074 -9.3444 -29.1976 -3.4317 19.2555 3.7987 7.7941 -1.3885 4.0109 0.0000 -0.0000 0.0000 -3.8092 -1.5051 13.4150 -5.8004 16.2421 2.5789 5.3474 -13.3883 -12.4828 0.0000 -0.6652 0.0000 
0.4844 8.4693 -0.0197 -6.1370 -0.8931 -4.9975 0.0000 -0.0000 0.0000 14.7640 -17.7087 3.9911 14.1645 26.8142 6.4766 7.7036 -10.1010 -2.3682 -0.0000 0.0012 -0.0036 0.0000 -0.0000 0.0000 -1.4972 0.7824 5.0888 -2.9319 1.6859 9.9274 -14.3652 3.5236 4.1038 2.9887 6.0895 -45.5259 19.7513 21.8217 1.6723 19.9747 4.4442 -22.4720 15.5031 -8.2162 29.9658 4.5268 18.2366 -2.8001 -7.8341 -1.3475 -4.0439 1.7060 0.2740 -1.6892 1.6056 0.2776 -1.7678 3.5704 0.4274 -7.0390 2.9449 4.7234 -2.7985 -1.6327 -0.5658 27.6052 -16.9473 19.1899 -0.7403 -11.9756 11.1325 10.3335 -14.8052 -9.8893 -28.8480 -3.0827 19.5823 4.1199 7.7734 -1.4098 3.9938 0.0000 -0.0000 0.0000 -3.3820 -3.1493 11.9355 -5.2577 18.6098 3.0973 6.5856 -13.7785 -11.9682 -0.0000 -0.8791 -0.0000 
0.6430 8.4531 -0.0072 -8.7079 -0.8930 -4.9961 0.0000 -0.0000 0.0000 16.3256 -17.8748 3.0844 14.4580 28.2446 6.6174 8.9620 -11.7529 -2.0259 -0.0000 0.0003 -0.0010 0.0000 -0.0000 0.0000 -2.0768 0.8002 5.1529 -4.0855 1.7714 10.0482 -14.5575 3.5353 4.2715 3.1479 6.8389 -45.7781 20.0844 22.1256 1.7910 20.1935 5.0745 -22.1677 15.4320 -8.1065 30.0571 4.6157 18.2016 -2.7217 -7.8273 -1.3545 -4.0383 1.8251 0.0785 -1.4052 1.7295 0.0575 -1.4972 4.0738 0.1913 -7.3340 2.9256 4.7759 -2.5340 -2.8764 -0.4055 27.1968 -16.2579 18.5232 -0.5302 -11.2900 9.4400 9.9954 -14.6771 -10.4835 -28.4552 -2.9183 19.7147 4.2739 7.7592 -1.4243 3.9821 0.0000 -0.0000 0.0000 -2.7152 -4.3968 10.3749 -4.2990 20.3490 3.9119 7.7873 -13.9694 -11.5271 -0.0000 -0.7771 0.0000 
0.7878 8.4398 0.0352 -11.2781 -0.8929 -5.0003 0.0000 -0.0000 0.0000 17.9940 -17.7272 2.1579 14.6864 29.3311 6.8954 10.2108 -13.3557 -1.9542 -0.0000 -0.0583 -0.0000 0.0000 -0.0000 0.0000 -2.7635 0.8581 5.2166 -5.4484 1.9464 10.1527 -14.7173 3.5480 4.4248 3.4035 7.8115 -45.9661 20.5621 22.5579 1.9642 20.5180 5.8211 -21.7106 15.3731 -7.9773 30.1696 4.7315 18.1554 -2.6196 -7.8167 -1.3653 -4.0296 1.5331 -0.0683 -1.0259 1.4405 -0.1358 -1.1174 4.3634 -0.1914 -7.6175 2.9945 4.8172 -2.2467 -4.5054 -0.3422 26.7121 -15.1348 17.4211 -0.2045 -10.9515 7.0030 9.4203 -14.6159 -11.0485 -28.0798 -2.9737 19.6274 4.2276 7.7535 -1.4302 3.9774 0.0000 -0.0000 0.0000 -1.9053 -5.1756 8.8837 -2.7617 21.4743 4.9376 8.6926 -14.1003 -11.1486 -0.0000 -0.2739 0.0000 
0.9058 8.4306 0.1002 -13.8477 -0.8927 -5.0082 0.0000 -0.0000 0.0000 19.5267 -17.2635 1.3185 14.8033 30.0253 7.2656 11.6973 -14.7822 -2.2526 0.0000 -0.1427 -0.0000 0.0000 -0.0000 0.0000 -3.5537 0.9559 5.2711 -7.0140 2.2093 10.2252 -14.8537 3.5661 4.5959 3.7524 8.9289 -46.1119 21.1604 23.0939 2.1858 20.9542 6.5879 -21.0977 15.3872 -7.8587 30.2870 4.8558 18.0978 -2.5095 -7.8055 -1.3768 -4.0203 0.9426 -0.1707 -0.5728 0.8517 -0.2984 -0.6495 4.5613 -0.6921 -7.9119 3.1044 4.8543 -1.9387 -6.3396 -0.4436 26.2026 -13.8301 16.1170 0.1473 -11.0263 4.0661 8.8021 -14.5820 -11.4542 -27.8263 -3.1984 19.3803 4.0249 7.7557 -1.4280 3.9792 0.0000 -0.0000 0.0000 -1.0859 -5.4666 7.5657 -0.7523 21.9800 6.1472 8.4862 -14.3422 -10.7379 -0.0000 0.0009 0.0025 
0.9893 8.4257 0.1749 -16.4173 -0.8926 -5.0113 0.0000 -0.0000 0.0000 20.8221 -16.5686 0.6037 14.8146 30.3317 7.7289 13.5066 -15.9068 -2.9405 0.0000 -0.2284 0.0000 0.0000 -0.0000 0.0000 -4.4062 1.0853 5.2991 -8.7017 2.5402 10.2470 -15.0142 3.5921 4.8247 4.1543 10.0463 -46.2798 21.7990 23.6591 2.4281 21.4406 7.2883 -20.3988 15.5015 -7.7835 30.3837 4.9525 18.0402 -2.4229 -7.7999 -1.3826 -4.0157 0.2451 -0.2398 -0.0859 0.1559 -0.4272 -0.1369 4.8168 -1.2768 -8.2226 3.1902 4.8871 -1.6748 -8.1055 -0.7087 25.7760 -12.6436 14.9099 0.4420 -11.4699 1.0843 8.3870 -14.5368 -11.5985 -27.7758 -3.4814 19.0907 3.7663 7.7643 -1.4191 3.9863 0.0000 -0.0000 0.0000 -0.4032 -5.5863 6.4454 1.4016 22.2531 7.6444 6.3300 -14.7978 -10.3519 0.0000 -0.7512 -0.0000 
1.0369 8.4250 0.2472 -18.9869 -0.8924 -5.0099 0.0000 -0.0000 0.0000 21.9268 -15.7519 0.0119 14.7492 30.2912 8.3028 15.5557 -16.6510 -3.9533 0.0000 -0.3053 0.0000 0.0000 -0.0000 0.0000 -5.2552 1.2343 5.2904 -10.3819 2.9076 10.1981 -15.2499 3.6246 5.1233 4.5355 11.0213 -46.5285 22.3650 24.1538 2.6477 21.8659 7.8840 -19.7432 15.6788 -7.7650 30.4386 4.9884 18.0024 -2.3892 -7.8043 -1.3781 -4.0193 -0.4184 -0.2841 0.3966 -0.5038 -0.5200 0.3768 5.1891 -1.9385 -8.5211 3.2396 4.9004 -1.5550 -9.6078 -1.0279 25.5522 -11.7473 13.9856 0.6484 -12.0993 -1.4553 8.2779 -14.4823 -11.4877 -27.9156 -3.7181 18.8639 3.5472 7.7782 -1.4049 3.9977 0.0000 -0.0000 0.0000 0.0158 -5.6586 5.5343 3.5031 22.1980 9.4917 2.2334 -15.3963 -10.0408 0.0000 -2.6469 0.0000 
1.0540 8.4274 0.3105 -21.5568 -0.8923 -5.0059 0.0000 -0.0000 0.0000 22.9561 -14.8959 -0.4759 14.6368 29.9851 8.9696 17.6896 -17.0309 -5.1666 -0.0000 -0.3741 -0.0000 0.0000 -0.0000 0.0000 -6.0281 1.3867 5.2343 -11.9122 3.2707 10.0568 -15.5624 3.6584 5.4560 4.8127 11.7585 -46.8558 22.7534 24.4901 2.8010 22.1270 8.3651 -19.2698 15.8394 -7.7924 30.4452 4.9548 18.0007 -2.4173 -7.8164 -1.3656 -4.0294 -1.0290 -0.3024 0.8480 -1.1072 -0.5753 0.8616 5.5819 -2.6877 -8.7418 3.3238 4.8714 -1.6357 -10.8195 -1.2207 25.6066 -11.1567 13.3708 0.7766 -12.6309 -3.1741 8.3531 -14.4656 -11.2416 -28.1345 -3.8675 18.7360 3.4066 7.7957 -1.3869 4.0122 0.0000 -0.0000 0.0000 -0.0058 -5.7746 4.8953 5.3768 21.7824 11.3472 -2.6812 -15.7650 -9.7952 0.0000 -4.3891 -0.0000 
1.0514 8.4319 0.3636 -24.1268 -0.8922 -5.0009 0.0000 -0.0000 0.0000 24.0173 -14.0399 -0.8708 14.5054 29.5036 9.6446 19.7477 -17.1414 -6.4225 -0.0000 -0.4474 0.0000 0.0000 -0.0000 0.0000 -6.6565 1.5212 5.1170 -13.1586 3.5780 9.7975 -15.8812 3.6889 5.7583 4.9320 12.2053 -47.1859 22.9042 24.6199 2.8611 22.1737 8.6981 -19.0748 15.9146 -7.8501 30.4048 4.8674 18.0417 -2.4947 -7.8283 -1.3535 -4.0391 -1.6531 -0.2840 1.2507 -1.7211 -0.5892 1.2977 5.7784 -3.5068 -8.7923 3.5338 4.7922 -1.8742 -11.7948 -1.1282 25.9361 -10.8460 13.0457 0.8415 -12.8136 -3.8520 8.4011 -14.5379 -11.0092 -28.2994 -3.9559 18.6725 3.3219 7.8136 -1.3686 4.0270 0.0000 -0.0000 0.0000 -0.6992 -5.9764 4.6139 6.6915 21.2315 12.6022 -6.9458 -15.7688 -9.5307 -0.0000 -4.4998 0.0000 
1.0390 8.4375 0.4076 -26.6970 -0.8920 -4.9951 0.0000 -0.0000 0.0000 25.1701 -13.2041 -1.1535 14.3705 28.9279 10.1971 21.5983 -17.0988 -7.5764 -0.0000 -0.5410 -0.0000 0.0000 -0.0000 0.0000 -7.0811 1.6136 4.9236 -14.0045 3.7744 9.3975 -16.0929 3.7140 5.9751 4.9021 12.3321 -47.4077 22.8132 24.5416 2.8248 22.0041 8.7896 -19.1946 15.8795 -7.9400 30.3110 4.7460 18.1265 -2.6049 -7.8327 -1.3489 -4.0428 -2.3485 -0.2174 1.5902 -2.4055 -0.5561 1.6690 5.5414 -4.3145 -8.5703 3.8684 4.6856 -2.1590 -12.4927 -0.7034 26.4733 -10.8753 13.0764 0.8355 -12.5784 -3.4166 8.3288 -14.6971 -10.8613 -28.3556 -4.0295 18.6232 3.2509 7.8263 -1.3555 4.0375 0.0000 -0.0000 0.0000 -2.2690 -6.2138 4.7016 7.2108 20.8438 12.9145 -9.8701 -15.5696 -9.2279 -0.0000 -2.8547 0.0000 
1.0208 8.4441 0.4432 -29.2674 -0.8920 -4.9875 0.0000 -0.0000 0.0000 26.4111 -12.3990 -1.2955 14.2401 28.3059 10.5423 23.2139 -16.9733 -8.5699 -0.0000 -0.6456 -0.0000 0.0000 -0.0000 0.0000 -7.2582 1.6461 4.6489 -14.3640 3.8213 8.8542 -16.0967 3.7345 6.0789 4.7978 12.1314 -47.4231 22.5133 24.2826 2.7060 21.6328 8.4892 -19.6153 15.7463 -8.0813 30.1484 4.5985 18.2535 -2.7411 -7.8303 -1.3514 -4.0408 -3.1021 -0.1013 1.8531 -3.1512 -0.4725 1.9577 4.7095 -4.9808 -7.9921 4.1948 4.5919 -2.3974 -12.7058 -0.0505 27.1347 -11.4055 13.6304 0.7233 -12.0670 -1.9172 8.2140 -14.8691 -10.7459 -28.3692 -4.0995 18.5810 3.1825 7.8290 -1.3527 4.0397 0.0000 -0.0000 0.0000 -4.7537 -6.2917 5.0343 7.1782 20.6283 12.8122 -11.7706 -15.3990 -9.1361 -0.0000 -0.7568 0.0000 
0.9952 8.4517 0.4701 -31.8382 -0.8919 -4.9773 0.0000 -0.0000 0.0000 27.6810 -11.6135 -1.3214 14.1054 27.6267 10.7480 24.7470 -16.7383 -9.4827 -0.0000 -0.7047 -0.0000 0.0000 -0.0000 0.0000 -7.1707 1.6164 4.3128 -14.2011 3.7184 8.2107 -15.8518 3.7496 6.0567 4.7229 11.6269 -47.1697 22.0476 23.8770 2.5240 21.0912 7.6327 -20.2722 15.5490 -8.2808 29.9182 4.4328 18.4081 -2.8953 -7.8274 -1.3544 -4.0384 -3.8394 0.0499 2.0252 -3.8871 -0.3433 2.1445 3.2446 -5.3835 -7.0292 4.3443 4.5389 -2.5797 -12.1992 0.6100 27.8703 -12.6005 14.8658 0.4523 -11.5024 0.5029 8.1660 -14.9640 -10.5307 -28.4735 -4.1411 18.5797 3.1382 7.8221 -1.3598 4.0340 0.0000 -0.0000 0.0000 -7.9798 -6.0650 5.3887 7.1054 20.4838 12.7011 -13.2356 -15.4472 -9.5590 0.0000 0.5606 -0.0000 
